<svg width="95" height="25" viewBox="0 0 95 25" fill="none" xmlns="http://www.w3.org/2000/svg">
<path d="M93.0461 13.5787V9.73884L94.0734 8.89509C94.1217 8.85738 94.16 8.80853 94.1852 8.75274C94.2103 8.69695 94.2216 8.63588 94.218 8.57477C94.2138 8.51341 94.1959 8.45378 94.1654 8.40034C94.135 8.3469 94.0929 8.30103 94.0422 8.26618L82.7141 0.844304C82.6496 0.804094 82.5752 0.782776 82.4992 0.782776C82.4232 0.782776 82.3488 0.804094 82.2844 0.844304L70.9562 8.26618C70.9056 8.30103 70.8634 8.3469 70.833 8.40034C70.8025 8.45378 70.7846 8.51341 70.7805 8.57477C70.7768 8.63588 70.7881 8.69695 70.8132 8.75274C70.8384 8.80853 70.8768 8.85738 70.925 8.89509L75.0773 12.2935V12.5162C74.5539 13.6282 74.2869 14.8436 74.2963 16.0726C74.3057 17.3016 74.5911 18.5128 75.1315 19.6167C75.6719 20.7206 76.4534 21.6889 77.4183 22.4502C78.3832 23.2114 79.5068 23.7461 80.7061 24.0148C81.9055 24.2834 83.1498 24.2792 84.3473 24.0023C85.5447 23.7254 86.6647 23.183 87.6243 22.4151C88.584 21.6472 89.3588 20.6735 89.8916 19.5659C90.4243 18.4584 90.7014 17.2452 90.7023 16.0162C90.7055 14.8059 90.4386 13.6102 89.9211 12.5162V12.2935L92.2648 10.3756V13.5787L91.3078 15.4927C91.2185 15.6716 91.1765 15.8703 91.1856 16.07C91.1948 16.2696 91.2549 16.4637 91.3602 16.6336C91.4655 16.8035 91.6125 16.9436 91.7873 17.0407C91.962 17.1377 92.1587 17.1884 92.3586 17.1881H92.9523C93.1522 17.1884 93.3489 17.1377 93.5236 17.0407C93.6984 16.9436 93.8454 16.8035 93.9507 16.6336C94.056 16.4637 94.1161 16.2696 94.1253 16.07C94.1345 15.8703 94.0924 15.6716 94.0031 15.4927L93.0461 13.5787ZM79.382 15.6256C79.3952 14.0635 79.6753 12.5151 80.2101 11.0474C80.9708 10.9722 81.7348 10.9357 82.4992 10.9381C83.2636 10.9357 84.0276 10.9722 84.7883 11.0474C85.3232 12.5151 85.6032 14.0635 85.6164 15.6256H79.382ZM85.6164 16.4068C85.5998 17.6111 85.4358 18.8088 85.1281 19.9732C83.4249 19.3847 81.5735 19.3847 79.8703 19.9732C79.5626 18.8088 79.3986 17.6111 79.382 16.4068H85.6164ZM82.4992 10.1568C79.8273 10.1568 77.1437 10.5826 75.8586 11.399V8.98493C75.8586 8.45368 78.2023 7.42243 82.4992 7.42243C86.7961 7.42243 89.1398 8.45368 89.1398 8.98493V11.399C87.8547 10.5826 85.1711 10.1568 82.4992 10.1568ZM79.3351 11.1529C78.8651 12.598 78.6175 14.1061 78.6008 15.6256H75.089C75.1373 14.6367 75.3858 13.6679 75.8195 12.7779C75.8458 12.7244 75.8592 12.6656 75.8586 12.606V12.5006C75.8586 12.1216 77.0695 11.4849 79.3351 11.1529ZM75.0969 16.4068H78.6008C78.6193 17.7084 78.8017 19.0024 79.1437 20.2584C78.5045 20.5469 77.9046 20.9158 77.3586 21.356C76.0018 20.0546 75.1929 18.2844 75.0969 16.4068V16.4068ZM77.9601 21.8756C78.3997 21.5324 78.8767 21.2402 79.382 21.0045C79.6461 21.7919 80.0482 22.526 80.5695 23.1724C79.6221 22.9181 78.735 22.4772 77.9601 21.8756ZM82.4992 23.4381C81.6242 23.4381 80.7141 22.4302 80.1047 20.7193C81.6551 20.1776 83.3433 20.1776 84.8937 20.7193C84.2844 22.4302 83.3742 23.4381 82.4992 23.4381ZM84.4289 23.1724C84.9502 22.526 85.3523 21.7919 85.6164 21.0045C86.1217 21.2402 86.5987 21.5324 87.0383 21.8756C86.2634 22.4772 85.3763 22.9181 84.4289 23.1724V23.1724ZM87.6398 21.356C87.0938 20.9158 86.494 20.5469 85.8547 20.2584C86.1967 19.0024 86.3791 17.7084 86.3976 16.4068H89.9016C89.8055 18.2844 88.9966 20.0546 87.6398 21.356ZM86.3976 15.6256C86.3809 14.1061 86.1333 12.598 85.6633 11.1529C87.9289 11.4849 89.1398 12.1216 89.1398 12.5006V12.606C89.1393 12.6656 89.1526 12.7244 89.1789 12.7779C89.6126 13.6679 89.8611 14.6367 89.9094 15.6256H86.3976ZM89.9211 11.2857V8.98493C89.9211 7.44587 86.1867 6.64118 82.4992 6.64118C78.8117 6.64118 75.0773 7.44587 75.0773 8.98493V11.2857L71.8312 8.62946L82.4992 1.64118L93.1672 8.62946L89.9211 11.2857ZM93.2844 16.2232C93.2502 16.2804 93.2014 16.3275 93.1431 16.3598C93.0848 16.392 93.019 16.4082 92.9523 16.4068H92.3586C92.292 16.4082 92.2261 16.392 92.1678 16.3598C92.1095 16.3275 92.0608 16.2804 92.0266 16.2232C91.991 16.1664 91.9705 16.1013 91.9671 16.0343C91.9636 15.9673 91.9774 15.9006 92.007 15.8404L92.6555 14.5474L93.3039 15.8404C93.3335 15.9006 93.3473 15.9673 93.3439 16.0343C93.3404 16.1013 93.32 16.1664 93.2844 16.2232V16.2232Z" fill="#D72DF3"/>
<circle cx="7.5" cy="12.5002" r="7" stroke="white"/>
<circle cx="42.5" cy="12.5001" r="7" stroke="white"/>
</svg>
