<svg width="95" height="25" viewBox="0 0 95 25" fill="none" xmlns="http://www.w3.org/2000/svg">
<path d="M58.0461 13.5787V9.73884L59.0734 8.89509C59.1217 8.85738 59.16 8.80853 59.1852 8.75274C59.2103 8.69695 59.2216 8.63588 59.218 8.57477C59.2138 8.51341 59.1959 8.45378 59.1654 8.40034C59.135 8.3469 59.0929 8.30103 59.0422 8.26618L47.7141 0.844304C47.6496 0.804094 47.5752 0.782776 47.4992 0.782776C47.4232 0.782776 47.3488 0.804094 47.2844 0.844304L35.9562 8.26618C35.9056 8.30103 35.8634 8.3469 35.833 8.40034C35.8025 8.45378 35.7846 8.51341 35.7805 8.57477C35.7768 8.63588 35.7881 8.69695 35.8132 8.75274C35.8384 8.80853 35.8768 8.85738 35.925 8.89509L40.0773 12.2935V12.5162C39.5539 13.6282 39.2869 14.8436 39.2963 16.0726C39.3057 17.3016 39.5911 18.5128 40.1315 19.6167C40.6719 20.7206 41.4534 21.6889 42.4183 22.4502C43.3832 23.2114 44.5068 23.7461 45.7061 24.0148C46.9055 24.2834 48.1498 24.2792 49.3473 24.0023C50.5447 23.7254 51.6647 23.183 52.6243 22.4151C53.584 21.6472 54.3588 20.6735 54.8916 19.5659C55.4243 18.4584 55.7014 17.2452 55.7023 16.0162C55.7055 14.8059 55.4386 13.6102 54.9211 12.5162V12.2935L57.2648 10.3756V13.5787L56.3078 15.4927C56.2185 15.6716 56.1765 15.8703 56.1856 16.07C56.1948 16.2696 56.2549 16.4637 56.3602 16.6336C56.4655 16.8035 56.6125 16.9436 56.7873 17.0407C56.962 17.1377 57.1587 17.1884 57.3586 17.1881H57.9523C58.1522 17.1884 58.3489 17.1377 58.5236 17.0407C58.6984 16.9436 58.8454 16.8035 58.9507 16.6336C59.056 16.4637 59.1161 16.2696 59.1253 16.07C59.1345 15.8703 59.0924 15.6716 59.0031 15.4927L58.0461 13.5787ZM44.382 15.6256C44.3952 14.0635 44.6753 12.5151 45.2101 11.0474C45.9708 10.9722 46.7348 10.9357 47.4992 10.9381C48.2636 10.9357 49.0276 10.9722 49.7883 11.0474C50.3232 12.5151 50.6032 14.0635 50.6164 15.6256H44.382ZM50.6164 16.4068C50.5998 17.6111 50.4358 18.8088 50.1281 19.9732C48.4249 19.3847 46.5735 19.3847 44.8703 19.9732C44.5626 18.8088 44.3986 17.6111 44.382 16.4068H50.6164ZM47.4992 10.1568C44.8273 10.1568 42.1437 10.5826 40.8586 11.399V8.98493C40.8586 8.45368 43.2023 7.42243 47.4992 7.42243C51.7961 7.42243 54.1398 8.45368 54.1398 8.98493V11.399C52.8547 10.5826 50.1711 10.1568 47.4992 10.1568ZM44.3351 11.1529C43.8651 12.598 43.6175 14.1061 43.6008 15.6256H40.089C40.1373 14.6367 40.3858 13.6679 40.8195 12.7779C40.8458 12.7244 40.8592 12.6656 40.8586 12.606V12.5006C40.8586 12.1216 42.0695 11.4849 44.3351 11.1529ZM40.0969 16.4068H43.6008C43.6193 17.7084 43.8017 19.0024 44.1437 20.2584C43.5045 20.5469 42.9046 20.9158 42.3586 21.356C41.0018 20.0546 40.1929 18.2844 40.0969 16.4068ZM42.9601 21.8756C43.3997 21.5324 43.8767 21.2402 44.382 21.0045C44.6461 21.7919 45.0482 22.526 45.5695 23.1724C44.6221 22.9181 43.735 22.4772 42.9601 21.8756ZM47.4992 23.4381C46.6242 23.4381 45.7141 22.4302 45.1047 20.7193C46.6551 20.1776 48.3433 20.1776 49.8937 20.7193C49.2844 22.4302 48.3742 23.4381 47.4992 23.4381ZM49.4289 23.1724C49.9502 22.526 50.3523 21.7919 50.6164 21.0045C51.1217 21.2402 51.5987 21.5324 52.0383 21.8756C51.2634 22.4772 50.3763 22.9181 49.4289 23.1724ZM52.6398 21.356C52.0938 20.9158 51.494 20.5469 50.8547 20.2584C51.1967 19.0024 51.3791 17.7084 51.3976 16.4068H54.9016C54.8055 18.2844 53.9966 20.0546 52.6398 21.356ZM51.3976 15.6256C51.3809 14.1061 51.1333 12.598 50.6633 11.1529C52.9289 11.4849 54.1398 12.1216 54.1398 12.5006V12.606C54.1393 12.6656 54.1526 12.7244 54.1789 12.7779C54.6126 13.6679 54.8611 14.6367 54.9094 15.6256H51.3976ZM54.9211 11.2857V8.98493C54.9211 7.44587 51.1867 6.64118 47.4992 6.64118C43.8117 6.64118 40.0773 7.44587 40.0773 8.98493V11.2857L36.8312 8.62946L47.4992 1.64118L58.1672 8.62946L54.9211 11.2857ZM58.2844 16.2232C58.2502 16.2804 58.2014 16.3275 58.1431 16.3598C58.0848 16.392 58.019 16.4082 57.9523 16.4068H57.3586C57.292 16.4082 57.2261 16.392 57.1678 16.3598C57.1095 16.3275 57.0608 16.2804 57.0266 16.2232C56.991 16.1664 56.9705 16.1013 56.9671 16.0343C56.9636 15.9673 56.9774 15.9006 57.007 15.8404L57.6555 14.5474L58.3039 15.8404C58.3335 15.9006 58.3473 15.9673 58.3439 16.0343C58.3404 16.1013 58.32 16.1664 58.2844 16.2232Z" fill="#3577F6"/>
<circle cx="7.5" cy="12.5" r="7" stroke="white"/>
<circle cx="87.5" cy="12.5" r="7" stroke="white"/>
</svg>
